<svg width="66" height="38" viewBox="0 0 66 38" fill="none" xmlns="http://www.w3.org/2000/svg">
<path d="M61.4375 1.5H4.5625C3.35438 1.5 2.375 2.47938 2.375 3.6875V34.3125C2.375 35.5206 3.35438 36.5 4.5625 36.5H61.4375C62.6456 36.5 63.625 35.5206 63.625 34.3125V3.6875C63.625 2.47938 62.6456 1.5 61.4375 1.5Z" stroke="#4169C1" stroke-width="3" stroke-linecap="round" stroke-linejoin="round"/>
<path d="M33 26.6562C37.2284 26.6562 40.6562 23.2284 40.6562 19C40.6562 14.7716 37.2284 11.3438 33 11.3438C28.7716 11.3438 25.3438 14.7716 25.3438 19C25.3438 23.2284 28.7716 26.6562 33 26.6562Z" stroke="#4169C1" stroke-width="3" stroke-linecap="round" stroke-linejoin="round"/>
<path d="M43.9375 1.5L63.625 19" stroke="#4169C1" stroke-width="3" stroke-linecap="round" stroke-linejoin="round"/>
<path d="M43.9375 36.5L63.625 19" stroke="#4169C1" stroke-width="3" stroke-linecap="round" stroke-linejoin="round"/>
<path d="M22.0625 1.5L2.375 19" stroke="#4169C1" stroke-width="3" stroke-linecap="round" stroke-linejoin="round"/>
<path d="M22.0625 36.5L2.375 19" stroke="#4169C1" stroke-width="3" stroke-linecap="round" stroke-linejoin="round"/>
</svg>
